<svg id="Layer_1" enable-background="new 0 0 512.511 512.511" height="512" viewBox="0 0 512.511 512.511" width="512" xmlns="http://www.w3.org/2000/svg"><path d="m320.028 417.485-12.64 21.226"/><path d="m511.63 156.892c-.029-41.67-45.128-67.744-81.26-46.88-49.87 28.79-52.457 29.19-60.308 38.219-3.154 2.629 5.996-11.883-137.134 228.475-4.729 7.94-7.359 17.021-7.608 26.257l-1.451 53.824c-1.125 41.663 43.239 68.963 79.933 49.109l48.121-26.033c10.768-5.826 16.657-13.032 22.449-22.752 141.186-237.093 132.994-222.547 133.821-226.372 4.56-12.117 3.478-15.417 3.437-73.847zm-174.934 294.827-48.121 26.033c-15.005 8.117-33.178-3.03-32.718-20.102l1.451-53.825c.22-8.205-5.146 3.125 97.976-170.047-1.275 47.258 45.063 70.376 79.867 51.544l6.307-3.412c-104.872 176.111-97.083 165.654-104.762 169.809zm131.349-220.574-48.121 26.033c-15.005 8.117-33.178-3.03-32.718-20.102l1.451-53.824c.207-7.65 4.452-14.78 11.08-18.607l46.632-26.92c14.771-8.528 33.248 2.11 33.261 19.188l.038 54.712c.006 8.158-4.448 15.638-11.623 19.52z"/><path d="m353.098 312.852c-7.588-4.521-17.412-2.032-21.933 5.561l-12.64 21.228c-6.396 10.739 1.483 24.188 13.732 24.188 5.453 0 10.77-2.791 13.762-7.816l12.64-21.228c4.522-7.593 2.032-17.413-5.561-21.933z"/><path d="m328.215 403.737c-7.591-4.521-17.411-2.033-21.934 5.561l-12.641 21.227c-6.39 10.731 1.47 24.189 13.732 24.189 5.453 0 10.769-2.79 13.762-7.816l12.641-21.227c4.522-7.593 2.032-17.412-5.56-21.934z"/><path d="m239.469 287.011-1.272-39.741c13.686-7.404 19.828-9.314 27.602-22.386 87.448-146.851 81.171-135.696 81.986-139.077 3.069-8.515 2.331-11.546 2.306-46.574-.021-30.148-32.647-49.014-58.796-33.92-29.987 17.313-32.359 17.952-37.893 24.151-2.709 2.398 3.016-6.563-68.786 114.014-66.93-111.121-61.923-103.517-64.822-105.983-6.74-7.59-9.249-8.108-49.244-30.93-31.185-17.794-69.965 4.791-69.809 40.742.201 46.484-.723 49.754 3.177 60.155.797 3.433-1.055-.215 108.781 182.139 4.979 8.265 10.144 14.426 19.343 19.342 40.153 21.463 45.824 26.311 60.81 26.311 24.969-.001 47.502-20.568 46.617-48.243zm67.825-253.984c4.841-2.796 10.792.705 10.797 6.229l.023 33.246c.002 2.647-1.444 5.075-3.773 6.336l-29.242 15.819c-4.893 2.651-10.768-.978-10.619-6.524l.882-32.707c.067-2.483 1.445-4.798 3.598-6.04zm-61.729 70.644c6.772 16.028 23.782 25.872 41.132 23.574 0 0-48.669 81.482-49.129 82.43-1.296 2.677-2.802 3.067-9.16 6.506l-25.063-41.61zm-190.875-69.314 37.58 21.443c4.399 2.511 7.232 7.214 7.394 12.277l1.385 43.244c.362 11.28-11.608 18.742-21.587 13.413l-38.772-20.723c-4.762-2.546-7.734-7.48-7.758-12.88l-.19-43.963c-.049-11.2 12.024-18.472 21.948-12.811zm131.209 267.089-38.773-20.726c-5.072-2.711 1.177 5.968-78.065-125.591 28.056 11.329 59.021-6.894 63.448-36.144 77.876 129.294 73.42 120.352 73.593 125.805l1.384 43.244c.361 11.304-11.63 18.732-21.587 13.412z"/><path d="m147.121 191.737c-4.56-7.569-14.39-10.012-21.961-5.451-7.569 4.559-10.011 14.392-5.451 21.961l10.242 17.006c3.004 4.987 8.295 7.747 13.722 7.747 12.324 0 20.141-13.547 13.69-24.257z"/></svg>